<svg width="17" height="19" viewBox="0 0 17 19" fill="none" xmlns="http://www.w3.org/2000/svg">
<path d="M15.5712 1.35243H11.3439L11.0127 0.693665C10.9426 0.552829 10.8345 0.434361 10.7007 0.351588C10.5669 0.268815 10.4127 0.225022 10.2553 0.225134H6.22879C6.07181 0.224531 5.91783 0.268161 5.7845 0.351026C5.65117 0.433891 5.54387 0.552639 5.47491 0.693665L5.14377 1.35243H0.916429C0.766941 1.35243 0.623575 1.41181 0.517871 1.51751C0.412167 1.62322 0.352783 1.76658 0.352783 1.91607L0.352783 3.04336C0.352783 3.19285 0.412167 3.33622 0.517871 3.44192C0.623575 3.54763 0.766941 3.60701 0.916429 3.60701H15.5712C15.7207 3.60701 15.8641 3.54763 15.9698 3.44192C16.0755 3.33622 16.1349 3.19285 16.1349 3.04336V1.91607C16.1349 1.76658 16.0755 1.62322 15.9698 1.51751C15.8641 1.41181 15.7207 1.35243 15.5712 1.35243V1.35243ZM2.22691 16.6765C2.25379 17.1058 2.44326 17.5088 2.75675 17.8033C3.07024 18.0978 3.48419 18.2617 3.91432 18.2618H12.5733C13.0035 18.2617 13.4174 18.0978 13.7309 17.8033C14.0444 17.5088 14.2339 17.1058 14.2607 16.6765L15.0076 4.7343H1.48007L2.22691 16.6765Z" fill="#CDCDCD"/>
</svg>
